<?xml version="1.0" standalone="no"?>
<!DOCTYPE svg PUBLIC "-//W3C//DTD SVG 20010904//EN"
 "http://www.w3.org/TR/2001/REC-SVG-20010904/DTD/svg10.dtd">
<svg version="1.0" xmlns="http://www.w3.org/2000/svg"
 width="502.000000pt" height="502.000000pt" viewBox="0 0 502.000000 502.000000"
 preserveAspectRatio="xMidYMid meet">
<metadata>
Created by potrace 1.14, written by Peter Selinger 2001-2017
</metadata>
<g transform="translate(0.000000,502.000000) scale(0.100000,-0.100000)"
fill="#000000" stroke="none">
<path d="M766 4735 c4 -8 11 -15 16 -15 6 0 5 6 -2 15 -7 8 -14 15 -16 15 -2
0 -1 -7 2 -15z"/>
<path d="M3994 4741 c-5 -5 -24 -9 -69 -15 -16 -2 -37 -6 -45 -10 -8 -3 -25
-7 -37 -9 -12 -2 -26 -6 -29 -10 -4 -4 -20 -7 -36 -7 -16 0 -27 -4 -24 -9 4
-5 -2 -7 -12 -4 -11 2 -25 -2 -33 -9 -8 -7 -21 -14 -29 -14 -20 -1 -98 -23
-119 -34 -20 -10 -44 -18 -52 -16 -4 0 -16 -8 -28 -18 -12 -11 -21 -16 -21
-11 0 4 -7 2 -15 -5 -8 -7 -15 -9 -15 -5 0 5 -9 0 -20 -10 -11 -10 -20 -15
-20 -10 0 4 -7 1 -16 -6 -9 -7 -21 -14 -28 -15 -17 -3 -138 -75 -163 -98 -13
-11 -23 -16 -23 -12 0 4 -10 -2 -22 -14 -12 -11 -25 -20 -29 -20 -5 0 -20 -11
-35 -25 -14 -13 -30 -22 -35 -19 -5 3 -9 0 -9 -6 0 -7 -8 -9 -20 -5 -11 4 -32
8 -48 10 -15 2 -27 5 -27 6 0 1 -9 3 -20 4 -11 2 -40 6 -65 9 -86 12 -135 18
-182 19 -27 1 -48 6 -48 11 0 5 -6 3 -13 -3 -8 -6 -16 -8 -20 -5 -11 11 -57
11 -57 0 0 -7 -3 -7 -8 -1 -9 13 -62 15 -62 3 0 -5 -7 -5 -17 1 -10 5 -26 5
-40 0 -15 -5 -23 -5 -23 2 0 6 -4 8 -9 4 -6 -3 -36 -7 -69 -10 -158 -12 -227
-21 -304 -41 -52 -12 -87 -12 -99 2 -6 8 -18 14 -25 14 -8 0 -14 5 -14 11 0 6
-7 8 -16 5 -8 -3 -12 -2 -9 4 3 5 -6 12 -20 16 -14 3 -25 9 -25 13 0 4 -27 20
-60 36 -33 16 -60 32 -60 37 0 4 -5 8 -12 8 -7 0 -49 18 -94 40 -44 22 -92 43
-105 45 -13 3 -25 9 -27 15 -2 5 -15 10 -28 10 -13 0 -24 3 -24 8 0 4 -28 16
-63 26 -34 11 -73 24 -87 29 -14 6 -36 12 -49 14 -14 2 -32 8 -42 14 -10 5
-27 9 -38 9 -10 0 -22 6 -24 13 -4 9 -6 9 -6 0 -1 -9 -8 -10 -24 -4 -57 22
-254 40 -243 22 4 -6 16 -11 27 -11 10 0 27 -4 37 -9 32 -16 87 -33 104 -33
10 1 20 -3 23 -9 4 -5 17 -9 31 -9 13 0 24 -5 24 -11 0 -5 3 -8 8 -6 4 3 18 0
32 -6 14 -5 31 -11 39 -13 8 -1 18 -9 22 -16 5 -7 9 -9 9 -4 0 5 7 3 15 -4 12
-10 15 -10 15 0 0 9 6 8 19 -4 10 -9 28 -18 40 -19 11 -1 21 -5 21 -9 0 -4 11
-8 25 -8 14 0 25 -4 25 -10 0 -5 9 -10 19 -10 11 0 23 -4 26 -10 3 -5 15 -10
26 -10 10 0 19 -5 19 -10 0 -6 3 -9 8 -9 22 4 42 -2 37 -11 -5 -9 24 -15 48
-11 5 1 6 -3 2 -9 -5 -9 15 -15 38 -11 4 0 7 -3 7 -9 0 -5 7 -10 15 -10 8 0
15 -4 15 -10 0 -5 9 -10 20 -10 11 0 20 -4 20 -9 0 -5 7 -12 16 -15 10 -4 13
-2 9 7 -4 6 0 4 8 -5 8 -10 19 -18 26 -18 6 0 11 -4 11 -10 0 -5 7 -10 15 -10
8 0 15 -4 15 -10 0 -5 9 -10 21 -10 11 0 27 -6 35 -14 15 -15 19 -37 6 -34 -8
2 -59 -18 -85 -32 -10 -6 -22 -8 -27 -5 -6 4 -10 1 -10 -4 0 -6 -5 -11 -10
-11 -6 0 -27 -7 -48 -17 -20 -9 -40 -15 -44 -15 -5 1 -8 -3 -8 -10 0 -6 -3 -9
-6 -5 -3 3 -28 -8 -55 -24 -28 -16 -54 -29 -59 -29 -6 0 -10 -3 -10 -8 0 -4
-15 -14 -32 -21 -18 -8 -38 -20 -45 -25 -34 -30 -43 -36 -53 -36 -5 0 -10 -4
-10 -10 0 -5 -6 -10 -14 -10 -8 0 -17 -7 -20 -16 -4 -9 -9 -14 -12 -11 -3 3
-14 -2 -23 -11 -31 -29 -61 -52 -61 -46 0 3 -11 -7 -25 -22 -14 -15 -25 -24
-25 -21 0 4 -14 -7 -30 -23 -17 -17 -35 -30 -41 -30 -6 0 -7 -4 -4 -10 3 -5 2
-10 -3 -10 -10 0 -152 -136 -152 -145 0 -3 -8 -14 -17 -24 -18 -20 -23 -26
-86 -111 -58 -76 -126 -188 -120 -194 4 -3 1 -6 -5 -6 -7 0 -12 -7 -12 -15 0
-7 -8 -19 -17 -24 -10 -6 -15 -11 -11 -11 4 0 -8 -30 -27 -67 -53 -108 -73
-157 -101 -245 -14 -46 -31 -93 -36 -105 -6 -13 -8 -26 -5 -30 4 -3 3 -11 -2
-17 -5 -6 -12 -27 -15 -46 -4 -19 -9 -44 -11 -55 -14 -69 -29 -181 -29 -227
-1 -21 -4 -38 -8 -38 -4 0 -3 -11 2 -25 5 -14 6 -25 2 -25 -4 0 -8 -25 -7 -56
0 -31 -3 -58 -8 -61 -4 -3 -4 -10 1 -16 10 -14 10 -47 -1 -64 -4 -6 -3 -14 1
-17 5 -3 10 -31 11 -63 4 -73 8 -121 15 -156 3 -15 8 -37 10 -50 2 -12 9 -42
16 -67 6 -25 12 -51 12 -57 1 -7 4 -13 8 -13 3 0 6 -12 5 -27 0 -16 2 -30 6
-33 5 -4 39 -98 53 -145 1 -5 10 -27 19 -49 9 -21 17 -42 17 -47 0 -5 5 -9 12
-9 6 0 9 -3 5 -6 -3 -3 6 -27 19 -54 13 -26 24 -52 24 -58 0 -5 7 -15 15 -22
8 -6 13 -16 12 -20 -1 -5 4 -17 11 -27 27 -39 82 -136 82 -143 0 -4 7 -11 16
-14 8 -3 12 -10 9 -16 -3 -5 -3 -10 2 -10 4 0 19 -17 33 -38 14 -20 29 -42 35
-49 5 -6 21 -26 35 -44 14 -18 30 -38 37 -45 7 -6 9 -14 6 -18 -4 -3 1 -6 10
-6 9 0 17 -4 17 -10 0 -5 15 -24 33 -41 17 -17 31 -35 30 -40 -2 -5 4 -9 13
-9 8 0 12 -5 9 -10 -3 -6 -3 -10 2 -10 4 0 26 -17 49 -38 92 -83 176 -152 188
-153 3 0 19 -13 37 -29 17 -17 35 -28 39 -25 4 3 11 -2 14 -11 3 -8 10 -13 15
-10 5 3 12 -1 15 -10 3 -8 10 -12 16 -9 5 3 10 1 10 -4 0 -6 7 -11 15 -11 8 0
15 -4 15 -10 0 -5 7 -10 15 -10 13 0 67 -32 85 -50 3 -3 10 -6 17 -7 6 -1 42
-17 80 -35 37 -18 74 -32 81 -31 6 0 12 -3 12 -8 0 -5 9 -9 19 -9 11 0 23 -5
26 -10 4 -6 10 -8 15 -5 5 3 11 1 15 -5 4 -6 11 -8 16 -5 5 4 9 1 9 -5 0 -7 6
-10 12 -8 7 3 24 -1 37 -8 14 -7 28 -11 33 -8 4 3 8 0 8 -7 0 -7 3 -9 6 -6 4
3 15 2 25 -3 10 -6 29 -11 43 -12 15 -1 26 -6 26 -10 0 -4 15 -8 34 -8 19 0
37 -4 41 -9 3 -6 13 -10 23 -10 9 0 31 -2 47 -5 17 -3 66 -8 110 -12 44 -4 83
-12 87 -18 6 -8 8 -8 8 0 0 7 13 10 33 7 42 -5 42 -5 110 -1 32 2 61 0 63 -4
3 -5 10 -6 15 -2 6 3 45 8 87 10 42 2 88 7 102 10 14 3 43 8 65 10 45 5 88 11
95 14 3 1 8 2 13 1 4 0 7 2 7 7 0 4 11 8 25 9 45 4 55 6 55 14 0 4 8 6 18 5 9
-2 19 0 22 5 3 4 21 11 40 14 19 3 41 11 49 18 8 7 15 10 15 8 2 -8 76 21 76
29 0 5 7 7 15 4 8 -4 15 -1 15 6 0 6 4 9 9 5 5 -3 12 -1 15 4 3 5 18 12 33 16
15 3 40 16 57 28 16 11 26 16 22 9 -5 -8 -2 -10 8 -6 9 3 13 11 9 17 -4 6 0 8
10 4 10 -3 17 -3 17 1 0 7 22 21 73 44 15 7 27 16 27 20 0 4 5 8 10 8 6 0 23
8 38 19 15 10 53 35 85 56 31 21 57 43 57 48 0 6 3 7 6 4 4 -4 15 3 25 15 11
11 19 18 19 14 0 -4 15 8 34 26 19 18 62 58 95 88 33 30 61 61 61 68 0 6 7 12
15 12 14 0 20 12 16 33 -1 5 2 6 7 3 8 -5 87 81 87 96 0 4 5 9 10 9 6 1 20 19
33 40 13 22 28 39 33 39 6 0 8 4 4 9 -3 5 2 16 10 24 8 9 15 20 15 25 0 6 3
12 8 14 13 5 61 85 68 112 3 14 10 23 15 20 5 -3 9 4 9 15 0 12 5 21 12 21 6
0 9 3 5 6 -3 4 1 13 9 21 8 8 12 19 9 24 -4 5 -1 9 5 9 7 0 10 6 7 14 -3 8 1
17 9 20 9 3 12 10 9 16 -3 5 -1 10 4 10 6 0 10 3 9 8 -4 11 35 106 46 114 6 4
8 8 3 8 -4 0 -1 13 8 30 8 16 15 41 15 55 0 14 4 24 9 20 6 -3 8 4 6 15 -2 11
0 20 5 20 5 0 7 9 5 20 -2 11 1 20 7 20 6 0 9 2 6 5 -3 3 1 31 9 63 8 31 15
66 14 77 0 10 4 24 8 30 4 5 7 22 6 38 -1 15 1 27 4 27 3 0 7 24 8 53 1 28 4
64 7 80 2 15 0 27 -5 27 -6 0 -7 6 -2 13 12 19 11 261 -1 269 -7 5 -7 8 2 8 7
0 11 4 8 9 -6 10 -16 93 -19 158 -1 24 -5 43 -8 43 -4 0 -5 10 -5 23 1 12 0
26 -3 32 -3 5 -6 16 -6 25 -3 33 -18 86 -27 98 -7 8 -7 12 2 12 8 0 9 4 3 13
-6 6 -16 35 -23 62 -8 28 -20 61 -26 74 -7 14 -11 28 -8 33 3 4 0 8 -5 8 -6 0
-10 3 -10 8 1 4 0 10 -1 15 -1 4 -3 10 -5 15 -1 4 -9 24 -18 44 -10 21 -17 42
-17 48 0 5 -5 10 -11 10 -5 0 -7 5 -4 10 3 6 1 10 -5 10 -6 0 -8 5 -5 10 3 6
1 10 -4 10 -6 0 -11 8 -11 19 0 10 -7 24 -15 31 -8 7 -12 16 -9 21 3 5 2 9 -3
9 -4 0 -14 15 -22 33 -8 17 -25 47 -38 65 -13 17 -21 32 -18 32 4 0 0 7 -7 15
-23 26 -33 40 -36 55 -2 8 -10 19 -18 23 -8 4 -14 13 -14 19 0 6 -10 19 -22
29 -11 11 -17 19 -13 19 4 0 -2 9 -15 20 -13 11 -20 20 -15 20 4 0 -7 13 -24
29 -16 15 -27 31 -24 35 3 3 2 6 -4 6 -14 0 -102 87 -95 94 3 3 -2 6 -11 6
-10 0 -17 8 -17 17 0 9 -2 14 -5 11 -3 -3 -26 14 -50 37 -24 24 -61 56 -82 71
-21 16 -40 32 -43 35 -11 15 -100 78 -100 72 0 -4 -7 2 -15 13 -8 10 -15 15
-15 11 0 -4 -6 -3 -12 3 -48 40 -63 50 -73 50 -7 0 -16 7 -19 16 -3 9 -13 14
-20 11 -8 -3 -16 0 -19 6 -3 7 -22 21 -43 32 -22 10 -47 26 -56 34 -10 8 -18
11 -18 7 0 -4 -17 2 -37 12 -60 32 -164 76 -174 74 -3 0 -6 5 -6 13 0 7 11 16
24 20 13 3 23 10 23 15 0 6 7 10 15 10 8 0 15 4 15 8 0 5 6 9 13 9 7 0 41 16
76 36 34 21 64 37 67 37 3 0 17 9 31 20 14 11 29 17 34 14 5 -3 9 0 9 5 0 6 6
11 13 11 7 0 30 9 51 21 21 11 45 18 53 15 8 -3 11 -1 8 4 -3 6 0 10 7 10 8 0
30 8 51 19 20 10 34 14 30 7 -3 -6 4 -2 16 9 13 11 25 19 27 18 2 -2 6 -2 9
-2 3 1 10 3 15 4 6 1 12 4 15 5 3 1 8 3 13 4 4 1 23 9 42 17 19 9 47 19 63 23
15 3 27 11 27 17 0 6 4 8 9 5 5 -3 26 2 47 11 22 9 48 18 58 20 11 2 25 8 31
13 7 5 15 7 18 3 4 -3 7 -1 7 5 0 6 7 9 15 6 8 -3 20 -2 27 2 12 8 18 10 53
17 43 9 17 16 -55 14 -45 -1 -84 -4 -86 -6z"/>
</g>
</svg>
